Coordinates
version=1
nRows=29
nColumns=24
inDegrees=yes

Units are S.I. units (second, meters, Newtons, ...)
Angles are in degrees.

endheader
time	pelvis_tilt	pelvis_list	pelvis_rotation	pelvis_tx	pelvis_ty	pelvis_tz	hip_flexion_r	hip_adduction_r	hip_rotation_r	knee_angle_r	ankle_angle_r	subtalar_angle_r	mtp_angle_r	hip_flexion_l	hip_adduction_l	hip_rotation_l	knee_angle_l	ankle_angle_l	subtalar_angle_l	mtp_angle_l	lumbar_extension	lumbar_bending	lumbar_rotation
      4.92000000	     -0.70750929	      7.12204886	    -12.28958165	     -1.69736255	      0.69631241	      0.17884444	     23.87545421	     -0.83080935	     11.20612999	    -70.31484262	     12.84427165	     -4.28005755	      0.00000000	      7.61131209	     14.16287055	     13.48949747	    -10.35537019	      6.94016690	    -23.39417627	      0.00000000	    -16.72269925	     -8.81655340	     -0.62459131
      4.93000000	     -0.89220784	      6.29960183	    -11.87099113	     -1.68328906	      0.69841615	      0.17896384	     25.43400403	      0.59428014	     10.77385293	    -68.53426325	     13.09834755	     -6.42366627	      0.00000000	      4.97797465	     13.31790041	     16.09731311	     -8.10994141	      5.39258078	    -26.08951023	      0.00000000	    -16.79958642	     -7.66449735	     -1.03133845
      4.94000000	     -1.18354542	      5.52566335	    -11.25109397	     -1.66935263	      0.69996802	      0.17907378	     26.97905196	      1.83890888	     10.10910232	    -66.32414939	     13.09081367	     -8.60937331	      0.00000000	      2.62048881	     12.39345349	     18.25892324	     -6.04149286	      4.19145891	    -28.02918098	      0.00000000	    -16.79951098	     -6.58051700	     -1.52618784
      4.95000000	     -1.53099146	      4.79060997	    -10.57433209	     -1.65557827	      0.70098911	      0.17920586	     28.44855673	      2.95325571	      9.40924938	    -63.67250633	     12.92579570	    -10.65426320	      0.00000000	      0.51085679	     11.44642191	     19.83980561	     -4.16358075	      3.27143756	    -29.49836515	      0.00000000	    -16.79368393	     -5.54748215	     -2.09412442
      4.96000000	     -2.05948556	      4.27836657	     -9.89762278	     -1.64197583	      0.70121613	      0.17949602	     30.05705707	      3.81668402	      8.80440294	    -60.68827323	     12.59687384	    -12.52707149	      0.00000000	     -1.13860366	     10.68775454	     20.69297453	     -2.58985125	      3.10371104	    -29.84195510	      0.00000000	    -16.55121922	     -4.81683351	     -2.64878507
      4.97000000	     -2.22553683	      3.67130138	     -9.14285963	     -1.62824704	      0.70149151	      0.17963474	     31.00425003	      4.53257780	      8.14221132	    -57.19322966	     12.53841702	    -13.61120301	      0.00000000	     -3.20934801	      9.85254444	     21.90167171	     -0.95329854	      2.26920698	    -31.11946709	      0.00000000	    -16.79103042	     -3.99579593	     -3.22862631
      4.98000000	     -2.71255055	      3.36761772	     -8.35045951	     -1.61465496	      0.70085862	      0.17975783	     32.21490371	      4.92020492	      7.62826048	    -53.36941274	     12.48158398	    -14.32869272	      0.00000000	     -4.58775390	      9.35443508	     22.44851005	      0.18687602	      2.32431284	    -31.19310390	      0.00000000	    -16.60358560	     -3.50132165	     -3.91522702
      4.99000000	     -3.00262231	      3.10419082	     -7.52311973	     -1.60098856	      0.70007337	      0.17984565	     32.98014604	      5.13230376	      7.20578456	    -49.11615478	     12.67262585	    -14.36089124	      0.00000000	     -6.07133753	      8.93333284	     23.05815049	      1.14107234	      2.35659738	    -31.38640197	      0.00000000	    -16.65311359	     -3.08590912	     -4.62511387
      5.00000000	     -3.24045804	      2.94683963	     -6.70779770	     -1.58725461	      0.69896429	      0.17994000	     33.46879729	      5.18104963	      6.99482687	    -44.47071754	     13.07171251	    -13.80412821	      0.00000000	     -7.46569808	      8.64964612	     23.65027591	      1.84329287	      2.48022130	    -31.55752872	      0.00000000	    -16.73537384	     -2.81141489	     -5.31103699
      5.01000000	     -3.43372050	      2.88013209	     -5.86873545	     -1.57341193	      0.69759038	      0.18001316	     33.66267579	      5.08291865	      7.03660231	    -39.44380739	     13.55455154	    -12.84987932	      0.00000000	     -8.77004780	      8.47232086	     24.30354991	      2.27900639	      2.72280126	    -31.64355466	      0.00000000	    -16.83953411	     -2.65008744	     -6.04076533
      5.02000000	     -3.70237566	      2.87848364	     -5.03461009	     -1.55934815	      0.69582583	      0.18008457	     33.67725233	      4.89892371	      7.44959787	    -34.09021703	     13.99587098	    -11.65842681	      0.00000000	     -9.88600564	      8.35399053	     25.03001716	      2.47518194	      3.14857744	    -31.59700992	      0.00000000	    -16.78070826	     -2.54213058	     -6.66341037
      5.03000000	     -3.52101400	      2.92286056	     -4.04306378	     -1.54515679	      0.69442568	      0.17998586	     32.92345333	      4.50101953	      8.20017496	    -28.42991821	     14.24033216	    -10.70988758	      0.00000000	    -11.39213976	      8.28086627	     25.94788663	      2.45686299	      3.56371771	    -31.44450943	      0.00000000	    -17.30189186	     -2.50217050	     -7.65821661
      5.04000000	     -3.44019058	      3.05161775	     -3.03385679	     -1.53059040	      0.69263200	      0.17978570	     32.05949837	      3.95884144	      9.51143702	    -22.67007397	     14.08642537	    -10.26410741	      0.00000000	    -12.72548683	      8.25580783	     26.99618872	      2.23941649	      4.17946783	    -31.08126169	      0.00000000	    -17.56080090	     -2.49860999	     -8.53079783
      5.05000000	     -3.25149203	      3.29830130	     -1.96705013	     -1.51577374	      0.69075058	      0.17939932	     30.93681530	      3.15222573	     11.27784657	    -16.99832566	     13.48104506	    -10.61507513	      0.00000000	    -14.08660064	      8.33735446	     28.11120738	      1.78910780	      4.90497506	    -30.45256769	      0.00000000	    -17.90888078	     -2.59049732	     -9.48868972
      5.06000000	     -2.88667539	      3.65309090	     -1.01574695	     -1.50055156	      0.68880672	      0.17904914	     29.56446248	      2.15634347	     13.37723516	    -11.66002847	     12.45888615	    -11.86509717	      0.00000000	    -15.63568255	      8.51298869	     29.09969863	      1.23804802	      5.78875110	    -29.37584788	      0.00000000	    -18.35378054	     -2.81659815	    -10.23065760
      5.07000000	     -2.66355304	      4.13862146	     -0.06210395	     -1.48518272	      0.68661896	      0.17828010	     28.51202482	      0.89982173	     14.74654924	     -7.15487964	     11.53906902	    -12.71947393	      0.00000000	    -16.88711948	      8.89312716	     29.88367250	      0.34342380	      6.66687123	    -28.07449580	      0.00000000	    -18.59742048	     -3.04759252	    -11.09135304
      5.08000000	     -2.32755244	      4.67555866	      0.55500836	     -1.46956482	      0.68447649	      0.17796959	     27.54732703	     -0.19679164	     15.51840290	     -3.65073600	     10.85382152	    -13.28557326	      0.00000000	    -18.18379411	      9.39341707	     30.00211456	     -0.75602926	      7.83416626	    -25.88494505	      0.00000000	    -18.90245411	     -3.44550069	    -11.40628658
      5.09000000	     -2.07803695	      5.03673436	      1.14830322	     -1.45360777	      0.68249020	      0.17764310	     26.83319112	     -0.97875637	     15.06728361	     -1.24607410	     10.68194983	    -12.81761122	      0.00000000	    -19.22652128	      9.75349388	     29.55951613	     -2.19357254	      9.12726414	    -23.03110870	      0.00000000	    -19.02466583	     -3.57356176	    -11.72118871
      5.10000000	     -1.79459011	      5.14183013	      1.62879562	     -1.43720566	      0.68084256	      0.17767238	     26.16211331	     -1.26430070	     13.91135171	      0.16366460	     10.57767343	    -12.18401560	      0.00000000	    -20.13125216	      9.85700807	     28.37671629	     -3.93712034	     10.53100351	    -19.29005662	      0.00000000	    -19.06303384	     -3.45556725	    -11.77969775
      5.11000000	     -1.51874853	      5.22818647	      1.97458691	     -1.42086428	      0.67951792	      0.17803390	     25.65655374	     -1.32441864	     12.66742353	      0.55077975	     10.38946738	    -11.65035262	      0.00000000	    -20.54881762	     10.04363547	     25.97604761	     -6.45026468	     12.18715785	    -14.11763865	      0.00000000	    -19.12795976	     -3.37457763	    -11.64161997
      5.12000000	     -1.35137977	      5.01686767	      2.34024219	     -1.40435330	      0.67852626	      0.17853756	     25.36484561	     -0.96877548	     11.04402260	      0.04115469	      9.76824158	    -11.47023738	      0.00000000	    -20.29569709	      9.90393062	     22.38660373	     -9.77090446	     13.77573842	     -7.96689773	      0.00000000	    -19.00285323	     -2.93104666	    -11.42248436
      5.13000000	     -1.35450073	      4.63264968	      2.51409679	     -1.38791141	      0.67762851	      0.17949437	     25.50499938	     -0.26339035	      9.37286039	     -1.42553652	      8.88908201	    -11.42210323	      0.00000000	    -19.27694251	      9.51411257	     17.93455456	    -13.84015083	     14.70943445	     -1.72551378	      0.00000000	    -18.64796523	     -2.38719784	    -10.87541521
      5.14000000	     -1.78410153	      4.13206443	      2.69610739	     -1.37168990	      0.67658935	      0.18046829	     26.35442234	      0.56034075	      7.49341991	     -3.73453581	      7.90043443	    -11.18449002	      0.00000000	    -17.24571148	      8.86741953	     13.65698204	    -18.60470676	     14.50917589	      3.41021600	      0.00000000	    -17.77791572	     -1.72345844	    -10.32909582
      5.15000000	     -1.53696384	      3.25129618	      2.72911383	     -1.35555597	      0.67663943	      0.18154281	     26.49362256	      1.78122757	      5.78398709	     -6.34193310	      6.59652875	    -11.29641581	      0.00000000	    -15.65603531	      7.64710436	     10.02299122	    -23.56297666	     13.17989183	      7.10450063	      0.00000000	    -17.79322058	     -0.55325495	     -9.55430322
      5.16000000	     -1.91937574	      2.44738294	      2.74392874	     -1.33987434	      0.67623653	      0.18261106	     27.50424903	      2.86128923	      4.28633108	     -9.43768023	      5.40682133	    -11.18728074	      0.00000000	    -12.91496167	      6.46609887	      7.06848956	    -28.99278721	     10.85934756	      9.37347859	      0.00000000	    -17.08673516	      0.43908424	     -8.84276256
      5.17000000	     -1.90797595	      1.36495793	      2.69201267	     -1.32436941	      0.67650342	      0.18360751	     27.95581955	      4.18565536	      3.18240679	    -12.39724334	      4.39596653	    -11.14477698	      0.00000000	    -10.33054731	      4.91741222	      4.66911868	    -34.49977765	      7.96191017	     10.29067621	      0.00000000	    -16.91781668	      1.81534050	     -8.01951406
      5.18000000	     -1.95548576	      0.13369054	      2.64933639	     -1.30919797	      0.67689175	      0.18451835	     28.31214428	      5.61491664	      2.42536395	    -15.10624894	      3.69780159	    -11.06288945	      0.00000000	     -7.40492182	      3.19055142	      2.84184593	    -40.05107769	      4.87255083	      9.98486882	      0.00000000	    -16.72905704	      3.37057266	     -7.22261822
      5.19000000	     -2.14072324	     -1.08836003	      2.75936319	     -1.29436118	      0.67734768	      0.18534203	     28.54227331	      6.96186738	      1.84042691	    -17.31911043	      3.58994647	    -10.96664127	      0.00000000	     -4.09169919	      1.45967099	      1.62822023	    -45.49068470	      1.76146633	      8.51541103	      0.00000000	    -16.38570862	      4.85862394	     -6.56014888
      5.20000000	     -2.14124003	     -2.37628812	      2.87409606	     -1.27984051	      0.67826148	      0.18625753	     28.24474874	      8.39658363	      1.40211048	    -18.89940381	      3.92451050	    -10.84042284	      0.00000000	     -0.87942052	     -0.31763752	      0.89353096	    -50.57055026	     -0.79303147	      6.48722859	      0.00000000	    -16.33030734	      6.37097787	     -5.86290483
